<svg width="99" height="20" viewBox="0 0 99 20" fill="none" xmlns="http://www.w3.org/2000/svg">
<path d="M16.8817 4.46901C14.9593 4.46901 13.5473 5.25685 12.4168 6.74038V4.8422H9.8838V14.9182C9.50219 16.6598 7.94711 17.7885 5.98657 17.7885C3.60148 17.7885 2.44233 16.2912 2.44233 14.0198V4.8422H0V13.9323C0 17.6135 2.08457 20 5.41892 20C7.3413 20 8.75327 19.2398 9.8838 17.7563V19.6545H12.4168V9.57843C12.7984 7.83229 14.3535 6.68509 16.3188 6.68509C18.6991 6.68509 19.863 8.21008 19.863 10.4815V17.2956C19.863 18.5994 20.9554 19.6545 22.3053 19.6545V10.5644C22.3053 6.8832 20.216 4.46901 16.8817 4.46901Z" fill="currentColor"/>
<path d="M37.0688 9.01174C37.0688 6.25201 35.2799 4.46901 31.2921 4.46901C27.6572 4.46901 25.2483 6.33955 25.067 9.09928H27.6286C27.8385 7.40382 29.384 6.6252 31.2635 6.6252C33.4959 6.6252 34.6312 7.31628 34.6312 9.01174C34.6312 10.5644 32.9616 10.8823 29.8944 11.343C26.6507 11.8314 24.3276 13.0108 24.3276 15.8581C24.3276 18.7054 26.5887 20 29.4508 20C31.8645 20 33.7678 18.9634 34.6932 17.6411V17.6687C34.8172 18.8113 35.8571 19.6545 37.0449 19.6545H37.6746C37.4361 19.0785 37.0783 17.8438 37.0783 16.6644V9.01174H37.0688ZM34.6264 14.2456C34.6264 16.6045 32.4512 17.9267 29.4746 17.9267C27.8671 17.9267 26.7366 17.208 26.7366 15.7706C26.7366 14.3331 27.6572 13.7295 29.9803 13.2965C32.6897 12.8081 34.0015 12.3197 34.6264 11.7715V14.2456Z" fill="currentColor"/>
<path d="M50.1393 17.2955C50.1393 18.5994 51.2316 19.6544 52.5816 19.6544V10.5644C52.5816 6.8832 50.497 4.46901 47.1627 4.46901C45.1401 4.46901 43.6805 5.33056 42.5165 6.97074V4.8422H40.1648V19.6544H42.6072V10.4216C42.6072 8.20547 44.334 6.68509 46.5998 6.68509C48.9801 6.68509 50.1393 8.21485 50.1393 10.4862V17.2955Z" fill="currentColor"/>
<path d="M58.1486 4.8422H55.7063V19.6545H58.1486V4.8422Z" fill="currentColor"/>
<path d="M56.9272 3.07302C57.7382 3.07302 58.3917 2.49251 58.3917 1.77839V1.29463C58.3917 0.580511 57.7334 0 56.9272 0C56.1211 0 55.4628 0.580511 55.4628 1.29463V1.77839C55.4628 2.49251 56.1211 3.07302 56.9272 3.07302Z" fill="currentColor"/>
<path d="M82.0275 10.0484C82.0275 6.42248 80.0336 4.46901 76.9044 4.46901C74.6433 4.46901 73.2123 5.53328 72.2296 7.17346C71.3948 5.39046 69.7587 4.46901 67.8506 4.46901C66.0952 4.46901 64.6069 5.39046 63.6814 6.82791V4.8422H61.3298V19.6545H63.7721V10.1636C63.7721 8.03501 65.2604 6.68509 67.2257 6.68509C69.191 6.68509 70.4694 7.74936 70.4694 10.0806V19.6591H72.9117V10.1682C72.9117 8.01197 74.3714 6.6897 76.3081 6.6897C78.2448 6.6897 79.5852 7.75397 79.5852 10.0852V17.3048C79.5852 18.6086 80.6776 19.6637 82.0275 19.6637V10.0484Z" fill="currentColor"/>
<path d="M91.9403 17.8715C89.498 17.8715 87.2035 16.2635 86.9364 12.9832H98.9954C99.1433 7.40382 95.6897 4.46901 91.8497 4.46901C87.7092 4.46901 84.4035 7.74936 84.4035 12.2645C84.4035 16.7795 87.6806 20 91.9403 20C95.3939 20 97.9269 18.1018 98.6424 15.5125H96.0522C95.4559 16.95 94.0535 17.8715 91.9403 17.8715ZM91.8545 6.59755C94.0583 6.59755 95.933 7.94747 96.2621 10.9422H87.0318C87.6281 7.86454 89.7985 6.59755 91.8545 6.59755Z" fill="currentColor"/>
</svg>
